<mxfile host="app.diagrams.net" agent="Mozilla/5.0 (Windows NT 10.0; Win64; x64) AppleWebKit/537.36 (KHTML, like Gecko) Chrome/131.0.0.0 Safari/537.36 Edg/131.0.0.0" version="26.0.3">
  <diagram id="NDjP_jHPMeZI4xUf8rZq" name="Страница 1">
    <mxGraphModel dx="1230" dy="1780" grid="1" gridSize="10" guides="1" tooltips="1" connect="1" arrows="1" fold="1" page="1" pageScale="1" pageWidth="827" pageHeight="1169" math="0" shadow="0">
      <root>
        <mxCell id="0" />
        <mxCell id="1" parent="0" />
        <mxCell id="5N-DSqZPVVXM-ORM07j0-10" value="Факультативные курсы" style="swimlane;fontStyle=1;align=center;verticalAlign=top;childLayout=stackLayout;horizontal=1;startSize=40;horizontalStack=0;resizeParent=1;resizeParentMax=0;resizeLast=0;collapsible=1;marginBottom=0;fillColor=none;" parent="1" vertex="1">
          <mxGeometry x="290" y="-110" width="240" height="210" as="geometry">
            <mxRectangle x="380" y="120" width="100" height="30" as="alternateBounds" />
          </mxGeometry>
        </mxCell>
        <mxCell id="5N-DSqZPVVXM-ORM07j0-11" value="+ curses:List&lt;curse&gt;&#xa;+ Students:Dictionary&lt;student,curses&gt;&#xa;+Reviews: Dictionary&lt;student, reviews&gt;&#xa;+Teachers: Dictionary&lt;teacher,curses&gt;" style="text;strokeColor=none;fillColor=none;align=left;verticalAlign=top;spacingLeft=4;spacingRight=4;overflow=hidden;rotatable=0;points=[[0,0.5],[1,0.5]];portConstraint=eastwest;" parent="5N-DSqZPVVXM-ORM07j0-10" vertex="1">
          <mxGeometry y="40" width="240" height="60" as="geometry" />
        </mxCell>
        <mxCell id="mf-ydbOrfwiWEpW-QLoP-6" value="+ addCurse(Curse curse)&lt;div&gt;+ addTaskToPlanner(Task task)&lt;/div&gt;" style="rounded=0;whiteSpace=wrap;html=1;fillColor=none;align=left;" parent="5N-DSqZPVVXM-ORM07j0-10" vertex="1">
          <mxGeometry y="100" width="240" height="54" as="geometry" />
        </mxCell>
        <mxCell id="5N-DSqZPVVXM-ORM07j0-12" value="" style="line;strokeWidth=1;fillColor=none;align=left;verticalAlign=middle;spacingTop=-1;spacingLeft=3;spacingRight=3;rotatable=0;labelPosition=right;points=[];portConstraint=eastwest;strokeColor=inherit;" parent="5N-DSqZPVVXM-ORM07j0-10" vertex="1">
          <mxGeometry y="154" width="240" height="8" as="geometry" />
        </mxCell>
        <mxCell id="5N-DSqZPVVXM-ORM07j0-13" value="+ watchReviews()&#xa;+ watchCurses()" style="text;strokeColor=none;fillColor=none;align=left;verticalAlign=top;spacingLeft=4;spacingRight=4;overflow=hidden;rotatable=0;points=[[0,0.5],[1,0.5]];portConstraint=eastwest;" parent="5N-DSqZPVVXM-ORM07j0-10" vertex="1">
          <mxGeometry y="162" width="240" height="48" as="geometry" />
        </mxCell>
        <mxCell id="5N-DSqZPVVXM-ORM07j0-14" value="Курс" style="swimlane;fontStyle=1;align=center;verticalAlign=top;childLayout=stackLayout;horizontal=1;startSize=26;horizontalStack=0;resizeParent=1;resizeParentMax=0;resizeLast=0;collapsible=1;marginBottom=0;" parent="1" vertex="1">
          <mxGeometry x="130" y="130" width="160" height="120" as="geometry">
            <mxRectangle x="380" y="120" width="100" height="30" as="alternateBounds" />
          </mxGeometry>
        </mxCell>
        <mxCell id="5N-DSqZPVVXM-ORM07j0-15" value="+ nameOfCurse:string&#xa;+ teacher: Teacher&#xa;+ isPassed: bool" style="text;strokeColor=none;fillColor=none;align=left;verticalAlign=top;spacingLeft=4;spacingRight=4;overflow=hidden;rotatable=0;points=[[0,0.5],[1,0.5]];portConstraint=eastwest;" parent="5N-DSqZPVVXM-ORM07j0-14" vertex="1">
          <mxGeometry y="26" width="160" height="54" as="geometry" />
        </mxCell>
        <mxCell id="5N-DSqZPVVXM-ORM07j0-16" value="" style="line;strokeWidth=1;fillColor=none;align=left;verticalAlign=middle;spacingTop=-1;spacingLeft=3;spacingRight=3;rotatable=0;labelPosition=right;points=[];portConstraint=eastwest;strokeColor=inherit;" parent="5N-DSqZPVVXM-ORM07j0-14" vertex="1">
          <mxGeometry y="80" width="160" height="8" as="geometry" />
        </mxCell>
        <mxCell id="5N-DSqZPVVXM-ORM07j0-17" value="+ PassCurse()" style="text;strokeColor=none;fillColor=none;align=left;verticalAlign=top;spacingLeft=4;spacingRight=4;overflow=hidden;rotatable=0;points=[[0,0.5],[1,0.5]];portConstraint=eastwest;" parent="5N-DSqZPVVXM-ORM07j0-14" vertex="1">
          <mxGeometry y="88" width="160" height="32" as="geometry" />
        </mxCell>
        <mxCell id="5N-DSqZPVVXM-ORM07j0-18" value="Преподаватель" style="swimlane;fontStyle=1;align=center;verticalAlign=top;childLayout=stackLayout;horizontal=1;startSize=26;horizontalStack=0;resizeParent=1;resizeParentMax=0;resizeLast=0;collapsible=1;marginBottom=0;" parent="1" vertex="1">
          <mxGeometry x="40" y="360" width="330" height="130" as="geometry" />
        </mxCell>
        <mxCell id="5N-DSqZPVVXM-ORM07j0-19" value="+ name: string&#xa;+Curses:List&lt;curse&gt;" style="text;strokeColor=none;fillColor=none;align=left;verticalAlign=top;spacingLeft=4;spacingRight=4;overflow=hidden;rotatable=0;points=[[0,0.5],[1,0.5]];portConstraint=eastwest;" parent="5N-DSqZPVVXM-ORM07j0-18" vertex="1">
          <mxGeometry y="26" width="330" height="44" as="geometry" />
        </mxCell>
        <mxCell id="5N-DSqZPVVXM-ORM07j0-20" value="" style="line;strokeWidth=1;fillColor=none;align=left;verticalAlign=middle;spacingTop=-1;spacingLeft=3;spacingRight=3;rotatable=0;labelPosition=right;points=[];portConstraint=eastwest;strokeColor=inherit;" parent="5N-DSqZPVVXM-ORM07j0-18" vertex="1">
          <mxGeometry y="70" width="330" height="8" as="geometry" />
        </mxCell>
        <mxCell id="5N-DSqZPVVXM-ORM07j0-21" value="+CreateReview(studentsName:string, review: string, &#xa;curseName:string)&#xa;+addCurse(NameOfCurse: string)" style="text;strokeColor=none;fillColor=none;align=left;verticalAlign=top;spacingLeft=4;spacingRight=4;overflow=hidden;rotatable=0;points=[[0,0.5],[1,0.5]];portConstraint=eastwest;" parent="5N-DSqZPVVXM-ORM07j0-18" vertex="1">
          <mxGeometry y="78" width="330" height="52" as="geometry" />
        </mxCell>
        <mxCell id="5N-DSqZPVVXM-ORM07j0-54" value="" style="endArrow=open;startArrow=none;endFill=0;startFill=0;endSize=8;html=1;verticalAlign=bottom;labelBackgroundColor=none;strokeWidth=1;rounded=0;exitX=0.5;exitY=0;exitDx=0;exitDy=0;entryX=1.008;entryY=0.954;entryDx=0;entryDy=0;entryPerimeter=0;" parent="1" source="MWKFKxPkoX6ms6lV-m06-3" target="5N-DSqZPVVXM-ORM07j0-13" edge="1">
          <mxGeometry width="160" relative="1" as="geometry">
            <mxPoint x="426.15999999999997" y="200.004" as="sourcePoint" />
            <mxPoint x="510" y="150" as="targetPoint" />
          </mxGeometry>
        </mxCell>
        <mxCell id="MWKFKxPkoX6ms6lV-m06-3" value="Студент" style="swimlane;fontStyle=1;align=center;verticalAlign=top;childLayout=stackLayout;horizontal=1;startSize=40;horizontalStack=0;resizeParent=1;resizeParentMax=0;resizeLast=0;collapsible=1;marginBottom=0;fillColor=none;" vertex="1" parent="1">
          <mxGeometry x="530" y="146" width="190" height="130" as="geometry">
            <mxRectangle x="380" y="120" width="100" height="30" as="alternateBounds" />
          </mxGeometry>
        </mxCell>
        <mxCell id="MWKFKxPkoX6ms6lV-m06-4" value="+name: string&#xa;+curses:List&lt;curse&gt;" style="text;strokeColor=none;fillColor=none;align=left;verticalAlign=top;spacingLeft=4;spacingRight=4;overflow=hidden;rotatable=0;points=[[0,0.5],[1,0.5]];portConstraint=eastwest;" vertex="1" parent="MWKFKxPkoX6ms6lV-m06-3">
          <mxGeometry y="40" width="190" height="40" as="geometry" />
        </mxCell>
        <mxCell id="MWKFKxPkoX6ms6lV-m06-5" value="+ create Student(name:string)&lt;br&gt;&lt;span style=&quot;text-wrap-mode: nowrap;&quot;&gt;+singUp( couseName:string)&lt;/span&gt;" style="rounded=0;whiteSpace=wrap;html=1;fillColor=none;align=left;" vertex="1" parent="MWKFKxPkoX6ms6lV-m06-3">
          <mxGeometry y="80" width="190" height="50" as="geometry" />
        </mxCell>
        <mxCell id="MWKFKxPkoX6ms6lV-m06-9" style="edgeStyle=orthogonalEdgeStyle;rounded=0;orthogonalLoop=1;jettySize=auto;html=1;entryX=0.468;entryY=0.99;entryDx=0;entryDy=0;entryPerimeter=0;" edge="1" parent="1" source="5N-DSqZPVVXM-ORM07j0-18" target="5N-DSqZPVVXM-ORM07j0-17">
          <mxGeometry relative="1" as="geometry" />
        </mxCell>
        <mxCell id="MWKFKxPkoX6ms6lV-m06-10" value="" style="endArrow=classic;html=1;rounded=0;entryX=-0.002;entryY=0.971;entryDx=0;entryDy=0;entryPerimeter=0;exitX=0.5;exitY=0;exitDx=0;exitDy=0;" edge="1" parent="1" source="5N-DSqZPVVXM-ORM07j0-14" target="5N-DSqZPVVXM-ORM07j0-13">
          <mxGeometry width="50" height="50" relative="1" as="geometry">
            <mxPoint x="100" y="240" as="sourcePoint" />
            <mxPoint x="150" y="190" as="targetPoint" />
          </mxGeometry>
        </mxCell>
      </root>
    </mxGraphModel>
  </diagram>
</mxfile>
